<?xml version="1.0" standalone="no"?>
<!DOCTYPE svg PUBLIC "-//W3C//DTD SVG 20010904//EN"
 "http://www.w3.org/TR/2001/REC-SVG-20010904/DTD/svg10.dtd">
<svg version="1.0" xmlns="http://www.w3.org/2000/svg"
 width="700.000000pt" height="700.000000pt" viewBox="0 0 700.000000 700.000000"
 preserveAspectRatio="xMidYMid meet">
<metadata>
Created by potrace 1.11, written by Peter Selinger 2001-2013
</metadata>
<g transform="translate(0.000000,700.000000) scale(0.100000,-0.100000)"
fill="#000000" stroke="none">
<path d="M3130 6984 c-737 -79 -1428 -387 -1975 -881 -566 -511 -951 -1191
-1094 -1933 -49 -254 -56 -330 -56 -670 0 -347 7 -418 61 -695 92 -463 289
-920 567 -1317 226 -322 528 -626 841 -845 482 -339 982 -534 1587 -620 177
-25 701 -25 878 0 423 60 768 165 1121 342 693 346 1234 888 1575 1580 186
378 276 668 342 1110 25 172 26 716 0 890 -71 481 -207 891 -422 1270 -568
1002 -1559 1652 -2697 1770 -180 18 -552 18 -728 -1z m830 -1218 c240 -29 494
-84 733 -157 l97 -31 0 -269 c0 -148 -2 -269 -4 -269 -3 0 -62 25 -132 56
-422 184 -820 264 -1166 235 -385 -32 -621 -150 -747 -372 -90 -160 -95 -444
-11 -610 31 -59 103 -133 169 -173 133 -80 288 -127 685 -207 465 -94 601
-132 794 -225 149 -70 238 -131 341 -229 160 -153 251 -322 303 -560 21 -97
17 -459 -6 -565 -103 -470 -435 -768 -980 -880 -250 -51 -638 -69 -886 -41
-274 31 -567 97 -861 193 l-164 54 -3 288 c-1 158 1 286 5 284 5 -2 62 -31
128 -64 164 -84 293 -138 465 -194 264 -87 461 -120 730 -120 263 0 439 32
606 110 100 46 143 75 213 142 75 73 123 151 157 255 27 81 29 99 28 233 0
129 -3 154 -27 226 -62 188 -195 318 -418 409 -131 53 -240 81 -559 145 -321
64 -480 106 -641 170 -374 148 -577 354 -666 677 -26 93 -27 109 -27 323 0
215 1 230 28 325 53 192 136 336 270 471 225 224 532 348 966 388 89 8 458 -3
580 -18z"/>
</g>
</svg>
